<?xml version="1.0" standalone="no"?><!DOCTYPE svg PUBLIC "-//W3C//DTD SVG 1.1//EN" "http://www.w3.org/Graphics/SVG/1.1/DTD/svg11.dtd"><svg t="1559633749718" class="icon" style="" viewBox="0 0 1024 1024" version="1.1" xmlns="http://www.w3.org/2000/svg" p-id="2850" xmlns:xlink="http://www.w3.org/1999/xlink" width="200" height="200"><defs><style type="text/css"></style></defs><path d="M512.020466 958.688505c-246.343571 0-446.730461-200.38689-446.730461-446.688505S265.676895 65.311495 512.020466 65.311495c246.301616 0 446.688505 200.38689 446.688505 446.688505S758.322082 958.688505 512.020466 958.688505zM512.020466 129.542378c-210.924897 0-382.499577 171.57468-382.499577 382.457622s171.57468 382.457622 382.499577 382.457622c210.882941 0 382.457622-171.57468 382.457622-382.457622S722.903407 129.542378 512.020466 129.542378z" fill="#FB6C3F" p-id="2851"></path><path d="M330.827731 725.266222c-8.237615 0-16.434298-3.136433-22.706141-9.409301-12.544711-12.544711-12.544711-32.868595 0-45.413306L670.465105 308.1001c12.544711-12.544711 32.868595-12.544711 45.413305 0 12.544711 12.544711 12.544711 32.868595 0 45.413306L353.534895 715.856921C347.262028 722.129788 339.066369 725.266222 330.827731 725.266222z" fill="#FB6C3F" p-id="2852"></path><path d="M693.171246 725.266222c-8.237615 0-16.434298-3.136433-22.706141-9.409301L308.12159 353.513406c-12.544711-12.544711-12.544711-32.868595 0-45.413306 12.544711-12.544711 32.868595-12.544711 45.413305 0L715.87841 670.444639c12.544711 12.544711 12.544711 32.868595 0 45.413305C709.605543 722.129788 701.409884 725.266222 693.171246 725.266222z" fill="#FB6C3F" p-id="2853"></path></svg>