<?xml version="1.0" standalone="no"?><!DOCTYPE svg PUBLIC "-//W3C//DTD SVG 1.1//EN" "http://www.w3.org/Graphics/SVG/1.1/DTD/svg11.dtd"><svg t="1559633729232" class="icon" style="" viewBox="0 0 1024 1024" version="1.1" xmlns="http://www.w3.org/2000/svg" p-id="1997" xmlns:xlink="http://www.w3.org/1999/xlink" width="200" height="200"><defs><style type="text/css"></style></defs><path d="M512.041956 958.707948c-0.376577 0-0.794086 0-1.170663 0C264.600377 958.080661 64.706721 757.183142 65.292052 510.87027c0.292666-119.309316 47.046502-231.382834 131.645272-315.564096C281.243429 111.459534 393.06726 65.292052 511.958044 65.292052c0.376577 0 0.794086 0 1.170663 0 119.309316 0.292666 231.382834 47.004547 315.564095 131.603317 84.139306 84.599793 130.306788 196.883089 130.014123 316.233338-0.292666 119.309316-47.004547 231.382834-131.603317 315.52214C742.797503 912.540466 630.93274 958.707948 512.041956 958.707948zM511.958044 129.524982c-101.787244 0-197.552332 39.519062-269.731234 111.321388-72.429613 72.054059-112.451118 168.027901-112.701828 270.190699-0.50142 210.892151 170.661891 382.892527 381.51311 383.435902 0.334621 0 0.669242 0 1.003864 0 101.787244 0 197.552332-39.519062 269.731234-111.363343 72.429613-72.054059 112.451118-167.985946 112.701828-270.148743l0 0c0.25071-102.162798-39.267329-198.346417-111.321388-270.735098-72.054059-72.429613-168.027901-112.451118-270.190699-112.701828C512.627287 129.524982 512.292666 129.524982 511.958044 129.524982z" fill="#00BD85" p-id="1998"></path><path d="M459.224006 690.315198c-7.653307 0-15.347546-2.717901-21.494547-8.238638-13.173021-11.876492-14.259772-32.158421-2.38328-45.373397l263.332501-292.77302c11.918447-13.131065 32.200376-14.21884 45.373397-2.38328 13.173021 11.876492 14.259772 32.158421 2.38328 45.373397L483.102856 679.69328C476.746078 686.718277 468.00602 690.315198 459.224006 690.315198z" fill="#00BD85" p-id="1999"></path><path d="M456.631972 690.691775c-8.531304 0-17.061584-3.387144-23.376407-10.078543L278.066063 515.847631c-12.169157-12.922311-11.541871-33.246195 1.338485-45.415352 12.964266-12.169157 33.288151-11.541871 45.415352 1.338484l155.189502 164.765601c12.169157 12.922311 11.541871 33.246195-1.338485 45.415353C472.438982 687.806051 464.534965 690.691775 456.631972 690.691775z" fill="#00BD85" p-id="2000"></path></svg>